<?xml version="1.0" encoding="UTF-8"?><svg id="Layer_0_Image" data-name="Layer 0 Image" xmlns="http://www.w3.org/2000/svg" viewBox="0 0 800 600" x="0px" y="0px" width="800px" height="600px" version="1.1" xmlns:xlink="http://www.w3.org/1999/xlink"><title>1</title><path d="M40.631,380.562c5.324-4.888,8.424-4.4,10.679,2.487,3.692,11.273,6.129,22.892,5.5,34.833-.161,3.076,2.279,3.915,3.215,5.961,2.067,4.518,3.141,9.348,5.086,13.921,6.4,15.053,19.459,18.167,33.31,20.613,29,5.122,50.424-8.23,69.784-27.738,14.282-14.392,23.359-32.068,33.24-49.29,10.885-18.974,23.071-37.012,38.012-53.039,25.244-27.077,62.245-31.867,95.733-13.04,17.209,9.675,31.933,22.437,44.72,37.057,13.648,15.606,29.931,17.662,48.082,12.51,24.39-6.922,38.172-24.578,46.218-47.739,6.168-17.757,9.524-36.23,14.32-54.33,10.4-39.249,32.51-53.145,70.547-59.638,13.94-2.38,24.185,3.658,33.409,12.7,8.272,8.11,16.251,16.52,24.356,24.8,1.838,1.878,3.6,3.866,6.344,4.435,21.462,4.45,42.991,8.488,64.985,4.351,22.645-4.259,45.765-26.024,47.731-53.853,1.463-20.715,3.267-41.406,4.87-62.112.237-3.073.548-6.185,2.208-8.766a7.147,7.147,0,0,1,7.279-3.392c3.128.344,3.469,1.991,3.066,4.5a1.717,1.717,0,0,0,1.21,2.063c10.611,2.654,11.48,11.956,12.516,20.064,2.313,18.1-.537,36.22-1.369,54.324a167.1,167.1,0,0,1-2.623,25.321c-3.743,18.676-13.8,32.747-30.4,43.477,1.945-4.579,6.813-5.439,8.235-9.437-7.237,4.734-14.343,9.6-22.037,13.64,1.429,1.79,3-1.265,4.647,1.309-6.983,2.835-13.476,6.7-21.351,4.366-1.308-.387-1.583.1-2.529.564-6.16,3-12.9,2-19.435,2.237-2.7.1-4.017-1.9-3.679-5.268-3.028,5.368-7.229,4.733-11.826,3.9-7.071-1.285-14.261-1.894-21.352-3.082-15.909-2.665-28.909-10.9-40.284-21.88-6.293-6.075-12.272-12.485-18.2-18.922-2.655-2.884-5.608-3.654-9.385-3.322-26.667,2.345-43.121,15.285-51.51,40.6-5.1,15.388-7.751,31.39-11.915,47.011-4.828,18.111-11.112,35.513-25.015,48.942-5.456,5.269-12.178,8.682-18.585,12.643a62.215,62.215,0,0,1-29.846,9.682c-31.215,1.922-57.9-7.472-79.229-31.094-7.434-8.235-15.834-15.6-23.8-23.35-13.877-13.5-35.263-12.092-49.805-3.634-16.6,9.652-27.839,24.527-38.275,39.911-11.651,17.176-21.534,35.586-33.653,52.4-14.455,20.054-32.784,36.464-56.32,45.147-11.785,4.349-24.333,6.572-37.559,4.694-7.371-1.047-15.029-1.2-22.565-2.148a93.04,93.04,0,0,1-31.7-10.056c-18.293-9.584-29.348-24.918-32.584-45.572-1.667-10.64-1.1-21.246.145-31.877a30.942,30.942,0,0,1,2.914-9.326c.605-1.317,1.383-3.769,3.687-2.75C41.789,377.229,38.354,379.085,40.631,380.562Zm213.386-52.654c-3.616.184-4.814,1.458-6.018,2.732-10.648,11.268-20.508,23.069-28.733,36.343-11.109,17.929-21.03,36.595-33.362,53.785-2.057,2.867-6.1,4.692-6.315,10.1a64.7,64.7,0,0,0,14.04-16.506c8.03-13.5,15.848-27.14,24.082-40.519C227.792,357.461,239.836,342.55,254.017,327.908ZM533.8,220.047c-4.811-.276-21.916,9.268-23.124,12.656a2.148,2.148,0,0,0,.074,1.774c1.137,1.248,2.485.588,3.516-.155C520.705,229.684,527.089,224.964,533.8,220.047Zm165.4,35.705c7.446-.7,13.4-4.075,18.464-9.031,1.335-1.306,5-2.569,2.45-4.836-2.365-2.1-2.346,2.083-3.826,2.928a12.442,12.442,0,0,0-2.2,1.391C709.626,250.209,703.439,251.494,699.2,255.752ZM452.044,362.357c5.427-.448,15.051-8.26,16.474-13.078.255-.863.532-1.876-.476-2.166-.69-.2-2.154.139-2.315.584C463.285,354.43,456.547,357.2,452.044,362.357Z"/></svg>