<?xml version="1.0" encoding="UTF-8"?><svg id="Layer_0_Image" data-name="Layer 0 Image" xmlns="http://www.w3.org/2000/svg" viewBox="0 0 800 600" x="0px" y="0px" width="800px" height="600px" version="1.1" xmlns:xlink="http://www.w3.org/1999/xlink"><title>1</title><path d="M424.008,179.09c12.521-16.8,23.061-35.25,32.854-53.829,3.326-6.31,2.872-15.335,1.988-22.867-.532-4.529-5.487-12.244-8-12.067-5.256.37-11.621,3.893-15,8.136a177.459,177.459,0,0,0-19.588,30.047c-15.455,30.513-41.293,41.945-73.817,42.877-68.518,1.961-93.18,60.353-81.421,107.758,2.119,8.538,6.625,14.8,16.988,19.662,0-10.063.41-18.21-.081-26.3-1.215-20.01,20.09-51.587,38.389-58.031,19.673-6.929,39.788-3.023,59.57-7.706C395.621,202.1,412.416,194.645,424.008,179.09Zm-104.8,6.142q-.17-1.212-.341-2.427l50.3-5.581.279,1.94Z"/><path d="M400.592,300.045c-27.949-13.467-69.595,9.678-76.88,39.977-1.5,6.259.719,13.414,1.224,20.157l4.328.141a60.6,60.6,0,0,0,3.6-5.082c8.067-14.151,19.754-22.985,35.775-27.109,14.849-3.824,26.845,2.611,38.754,8.9,26.772,14.131,53.19,9.043,76.018-5.845,21.153-13.8,39.158-32.734,57.1-50.846,3.038-3.068.067-14.019-2.758-20.107-1.3-2.8-10.4-5.153-13.469-3.382-10.875,6.279-21.543,13.49-30.716,22.037C466.484,304.116,438.656,318.385,400.592,300.045Z"/><path d="M530.718,480.141c-9.368-4.3-19.35-8.73-29.4-9.72-13.218-1.3-26.763.658-40.166,1.282-24.627,1.148-47.92-.785-62.849-24.682-1.854-2.966-5.856-4.589-6.292-4.916.579-12.552-9.568-15.554-14.464-20.692-11.281-11.835-25.392-6.855-40.965-4.2,12.321,8.241-4.215,5.829-1.311,11.456H347.6c-7.63.484-16.014,12.17-24.563-.82-.248,5.527-.5,11.055-.851,18.911,4.373-4.695,6.317-8.753,8.839-9.15,10.933-1.722,22.022-2.59,33.086-3.224,2.006-.115,4.772,1.849,6.144,3.649,9.843,12.9,21.3,25.063,28.477,39.353,5.747,11.446,16,15.232,24.53,22.034,1.92,1.53,5.742,1.144,8.617.876,2.9-.272,5.7-1.494,10.791-2.935-1.011-2.051-2.877-5.837-4.742-9.623,5.02.695,8.953,3.727,13.24,6.128a80.623,80.623,0,0,0,12.3,5.387c2.358.842,5.014.851,7.538,1.235q-.094.889-.186,1.779l-16.646,1.112c25.134,1.682,50.049,4.556,75.045,6.29,3.838.267,11.5-4.8,11.445-7.256C540.463,494.117,539.713,484.271,530.718,480.141Zm-102.919.014.032-2.432h77.3l.375,2.432Z"/></svg>